<svg xmlns="http://www.w3.org/2000/svg" viewBox="0 0 160 160" role="img" aria-label="Banana icon">
  <defs>
    <linearGradient id="bananaBody" x1="0%" y1="0%" x2="100%" y2="0%">
      <stop offset="0%" stop-color="#f7e04a"/>
      <stop offset="100%" stop-color="#f2b705"/>
    </linearGradient>
  </defs>
  <rect width="160" height="160" rx="18" ry="18" fill="#0b1f3a"/>
  <g transform="translate(20,30) rotate(-8 60 60)">
    <path d="M12 90c30 34 90 30 108-18 3-8 2-15-2-17-3-2-7 1-9 6-7 17-38 24-63 8-11-7-20-20-24-34-1-4-5-6-8-4-4 2-5 8-3 16 3 12 9 26 21 43z" fill="url(#bananaBody)" stroke="#f2b705" stroke-width="4" stroke-linecap="round" stroke-linejoin="round"/>
    <path d="M104 47c4-8 2-15-1-18-4-4-10-2-14 4" stroke="#6b4800" stroke-width="6" stroke-linecap="round"/>
    <path d="M28 42c-3-7-9-10-13-9-5 2-6 8-3 15" stroke="#6b4800" stroke-width="6" stroke-linecap="round"/>
    <path d="M40 62c22 18 52 18 70 4" stroke="#f7f6f1" stroke-opacity="0.75" stroke-width="4" stroke-linecap="round"/>
  </g>
  <text x="80" y="148" text-anchor="middle" font-family="Arial, sans-serif" font-size="14" fill="#f7f6f1">nano banana</text>
</svg>
